<?xml version="1.0"?><svg id="Capa_1" xmlns="http://www.w3.org/2000/svg" xmlns:xlink="http://www.w3.org/1999/xlink" viewBox="0 0 612 792"><defs><linearGradient id="Degradado_sin_nombre_21" x1="283.89" y1="320.18" x2="458.38" y2="320.18" gradientUnits="userSpaceOnUse"><stop offset="0" stop-color="#00b44b"></stop><stop offset="1" stop-color="#005925"></stop></linearGradient><linearGradient id="Degradado_sin_nombre_24" x1="296.16" y1="436.59" x2="458.38" y2="436.59" gradientUnits="userSpaceOnUse"><stop offset="0" stop-color="#3d3d3f"></stop><stop offset="1" stop-color="#008a88"></stop></linearGradient></defs><polygon points="326.85 377.18 283.89 263.17 458.38 375.86 326.85 377.18" style="fill:url(#Degradado_sin_nombre_21); fill-rule:evenodd;"></polygon><polygon points="296.16 497.31 458.38 375.86 368.93 376.75 296.16 497.31" style="fill:url(#Degradado_sin_nombre_24); fill-rule:evenodd;"></polygon><path d="M191.1,438.81l-20.79-31.98v31.98h-15.99v-59.88h15.91l20.86,32.3v-32.3h16.07v59.88h-16.07ZM256.99,438.89l-3.08-8.27h-18.47l-3.08,8.27h-16.92l22.16-59.96h14.14l22.18,59.96h-16.94ZM244.71,400.79l-4.79,15.83h9.51l-4.71-15.83ZM315.02,438.89h-34.01v-59.96h31.37c1.14,0,2.3.14,3.52.43,1.22.28,2.4.69,3.56,1.24,1.16.53,2.24,1.16,3.24,1.89,1,.73,1.87,1.51,2.59,2.4,1.28,1.53,2.28,3.26,2.97,5.17.71,1.91,1.04,3.87,1.04,5.87,0,2.32-.45,4.54-1.39,6.68-.92,2.14-2.26,4.01-4.01,5.6,1.14.73,2.18,1.61,3.12,2.63.96,1.04,1.77,2.16,2.44,3.4.67,1.24,1.2,2.53,1.59,3.91.37,1.36.57,2.69.57,3.97,0,2.28-.41,4.42-1.28,6.46-.84,2.02-2.02,3.81-3.56,5.32-1.51,1.51-3.28,2.73-5.28,3.63-2,.9-4.17,1.36-6.48,1.36h0ZM307.52,390.97h-10.73v12.22h10.73c1.65,0,3.08-.61,4.28-1.83,1.22-1.2,1.83-2.63,1.83-4.28s-.61-3.08-1.83-4.28c-1.2-1.22-2.63-1.83-4.28-1.83h0ZM308.07,414.07h-11.28v12.14h11.28c1.69,0,3.14-.61,4.32-1.79,1.18-1.18,1.77-2.61,1.77-4.32s-.59-3.06-1.77-4.24c-1.18-1.2-2.63-1.79-4.32-1.79h0Z"></path><path d="M216.84,398.55c2.77,0,5.01,2.26,5.01,5.03s-2.24,5.01-5.01,5.01-5.01-2.24-5.01-5.01,2.24-5.03,5.01-5.03h0Z" style="fill:#00a648; fill-rule:evenodd;"></path><path d="M272.04,398.55c2.77,0,5.03,2.26,5.03,5.03s-2.26,5.01-5.03,5.01-5.01-2.24-5.01-5.01,2.24-5.03,5.01-5.03h0Z" style="fill:#00a648; fill-rule:evenodd;"></path><path d="M155.31,520.63v-15.27h10.25v2.01h-7.96v4.46h7.8v2.01h-7.8v6.77h-2.29Z"></path><path d="M168.04,520.63v-15.27h2.29v15.27h-2.29Z"></path><path d="M184.47,520.63l-8.45-11.72v11.72h-2.29v-15.27h2.36l8.31,11.44v-11.44h2.29v15.27h-2.22Z"></path><path d="M200.97,520.63l-1.24-3.16h-7.48l-1.24,3.16h-2.52l6.07-15.27h2.86l6.07,15.27h-2.52ZM195.98,507.35l-3.07,8.08h6.16l-3.09-8.08Z"></path><path d="M216.05,520.63l-8.45-11.72v11.72h-2.29v-15.27h2.36l8.31,11.44v-11.44h2.29v15.27h-2.22Z"></path><path d="M221.02,513c0-4.69,3.48-7.9,7.83-7.9,3,0,4.88,1.44,6.07,3.23l-1.95,1.03c-.8-1.28-2.31-2.22-4.12-2.22-3.09,0-5.47,2.43-5.47,5.86s2.38,5.86,5.47,5.86c1.81,0,3.32-.94,4.12-2.22l1.95,1.03c-1.21,1.79-3.07,3.23-6.07,3.23-4.35,0-7.83-3.2-7.83-7.9Z"></path><path d="M237.2,520.63v-15.27h2.29v15.27h-2.29Z"></path><path d="M253.79,520.63l-1.24-3.16h-7.48l-1.24,3.16h-2.52l6.07-15.27h2.86l6.07,15.27h-2.52ZM248.8,507.35l-3.07,8.08h6.16l-3.09-8.08Z"></path><path d="M258.13,520.63v-15.27h2.29v13.25h6.94v2.01h-9.22Z"></path><path d="M275.14,513c0-4.69,3.48-7.9,7.83-7.9,3,0,4.88,1.44,6.07,3.23l-1.95,1.03c-.8-1.28-2.31-2.22-4.12-2.22-3.09,0-5.47,2.43-5.47,5.86s2.38,5.86,5.47,5.86c1.81,0,3.32-.94,4.12-2.22l1.95,1.03c-1.21,1.79-3.07,3.23-6.07,3.23-4.35,0-7.83-3.2-7.83-7.9Z"></path><path d="M298.37,505.11c4.55,0,7.69,3.37,7.69,7.9s-3.14,7.9-7.69,7.9-7.69-3.36-7.69-7.9,3.14-7.9,7.69-7.9ZM298.37,507.15c-3.27,0-5.33,2.5-5.33,5.86s2.06,5.86,5.33,5.86,5.33-2.52,5.33-5.86-2.11-5.86-5.33-5.86Z"></path><path d="M319.56,520.63l-8.45-11.72v11.72h-2.29v-15.27h2.36l8.31,11.44v-11.44h2.29v15.27h-2.22Z"></path><path d="M325.53,516.71c1.03,1.14,2.68,2.15,4.81,2.15,2.47,0,3.34-1.26,3.34-2.36,0-1.6-1.74-2.06-3.68-2.56-2.45-.64-5.29-1.35-5.29-4.46,0-2.52,2.22-4.35,5.4-4.35,2.36,0,4.21.75,5.56,2.13l-1.33,1.69c-1.17-1.24-2.77-1.79-4.42-1.79s-2.86.87-2.86,2.15c0,1.37,1.65,1.81,3.55,2.29,2.49.66,5.4,1.44,5.4,4.69,0,2.38-1.65,4.6-5.77,4.6-2.72,0-4.71-.98-6.02-2.43l1.3-1.76Z"></path><path d="M338.67,505.36h2.31v9.22c0,2.61,1.44,4.28,4.12,4.28s4.1-1.67,4.1-4.28v-9.22h2.31v9.27c0,3.8-2.13,6.27-6.41,6.27s-6.43-2.49-6.43-6.25v-9.29Z"></path><path d="M354.92,520.63v-15.27h2.29v13.25h6.94v2.01h-9.22Z"></path><path d="M368.1,520.63v-13.25h-4.74v-2.01h11.74v2.01h-4.72v13.25h-2.29Z"></path><path d="M377.48,520.63v-15.27h2.29v15.27h-2.29Z"></path><path d="M393.92,520.63l-8.45-11.72v11.72h-2.29v-15.27h2.36l8.31,11.44v-11.44h2.29v15.27h-2.22Z"></path><path d="M406.8,505.11c2.86,0,4.76,1.3,6.04,3.02l-1.85,1.08c-.87-1.17-2.4-2.06-4.19-2.06-3.18,0-5.56,2.43-5.56,5.86s2.38,5.88,5.56,5.88c1.69,0,3.13-.82,3.87-1.51v-2.75h-4.9v-2.01h7.19v5.61c-1.46,1.62-3.57,2.7-6.16,2.7-4.37,0-7.92-3.16-7.92-7.92s3.55-7.9,7.92-7.9Z"></path><path d="M421.79,520.63v-15.27h2.29v13.25h6.94v2.01h-9.22Z"></path><path d="M433.53,520.63v-15.27h2.29v13.25h6.94v2.01h-9.22Z"></path><path d="M443.9,513c0-4.69,3.48-7.9,7.83-7.9,3,0,4.88,1.44,6.07,3.23l-1.95,1.03c-.8-1.28-2.31-2.22-4.12-2.22-3.09,0-5.47,2.43-5.47,5.86s2.38,5.86,5.47,5.86c1.81,0,3.32-.94,4.12-2.22l1.95,1.03c-1.21,1.79-3.07,3.23-6.07,3.23-4.35,0-7.83-3.2-7.83-7.9Z"></path></svg>